PathFileType	3	(X/Y/Z)	walking_3__view2_aligned.trc
DataRate	CameraRate	NumFrames	NumMarkers	Units	OrigDataRate	OrigDataStartFrame	OrigNumFrames
100.0	100.0	17	19	mm	100.0	2625	6318
Frame#	Time	pelvis			neck			head			hip_left			hip_right			knee_left			knee_right			ankle_left			ankle_right			heel_left			heel_right			toe_left			toe_right			shoulder_left			shoulder_right			elbow_left			elbow_right			wrist_left			wrist_right			
		X1	Y1	Z1	X2	Y2	Z2	X3	Y3	Z3	X4	Y4	Z4	X5	Y5	Z5	X6	Y6	Z6	X7	Y7	Z7	X8	Y8	Z8	X9	Y9	Z9	X10	Y10	Z10	X11	Y11	Z11	X12	Y12	Z12	X13	Y13	Z13	X14	Y14	Z14	X15	Y15	Z15	X16	Y16	Z16	X17	Y17	Z17	X18	Y18	Z18	X19	Y19	Z19	
2625	26.24000	-4.656084	940.493350	159.785516	-27.909497	1502.275358	257.713608	-37.326709	1573.245483	417.082735	72.198060	939.095565	158.547978	-81.510254	941.891138	161.023052	126.041839	531.673216	316.067102	-100.880640	506.553251	198.297665	133.512647	215.656014	123.684603	-97.237183	95.524837	90.629004	128.917748	192.460384	78.944994	-97.136922	44.408402	51.592419	133.751428	91.309225	231.678522	-105.062270	36.566957	288.857765	149.396743	1468.034383	196.579132	-202.823963	1434.033574	234.767335	246.246972	1190.962033	137.302087	-254.654310	1148.239876	233.533767	305.074332	949.716511	215.107735	-240.065977	925.090302	329.053852
2626	26.25000	-2.847878	940.392342	159.779909	-26.104215	1502.859074	256.948258	-34.799123	1574.049846	416.411420	74.009059	938.912549	158.353335	-79.704815	941.872134	161.206483	127.490009	532.742038	324.402538	-98.180102	505.378482	189.759052	134.458080	214.161209	141.020623	-94.531361	95.831251	73.021281	129.789855	190.082964	97.178903	-94.544128	45.196816	33.004065	134.620059	93.388494	251.065339	-102.213896	34.164639	270.947951	150.846285	1468.878325	193.854619	-201.372155	1433.923896	236.136369	247.689281	1191.988342	132.456042	-253.684992	1147.961586	240.711134	310.156936	949.251451	204.464671	-236.406641	927.386627	343.822003
2627	26.26000	-1.331163	940.073713	159.580467	-23.661196	1502.892477	256.065650	-31.737559	1574.241968	415.540299	75.525096	938.635708	158.149478	-78.187374	941.511713	161.011460	128.724321	533.372742	330.222806	-98.072525	503.932842	182.664909	135.918096	210.255692	157.168909	-95.335135	98.804203	58.094551	131.347311	184.771822	114.312567	-95.247390	49.421335	17.563444	135.282226	94.311903	270.930732	-103.976612	34.551228	252.178523	153.036000	1468.537826	191.481343	-199.610346	1433.891258	237.022504	249.158752	1191.826351	127.551669	-253.032850	1148.066705	246.488347	313.410041	947.580679	192.550148	-233.235248	930.781981	356.392836
2628	26.27000	0.185552	939.755084	159.381026	-21.218177	1502.925881	255.183042	-28.675994	1574.434090	414.669178	77.041133	938.358867	157.945620	-76.669932	941.151291	160.816437	129.958634	534.003445	336.043074	-97.964948	502.487202	175.570765	137.378112	206.350175	173.317195	-96.138910	101.777155	43.167820	132.904766	179.460680	131.446230	-95.950652	53.645854	2.122822	135.944393	95.235311	290.796125	-105.739327	34.937818	233.409094	155.225716	1468.197327	189.108067	-197.848537	1433.858620	237.908640	250.628223	1191.664359	122.647296	-252.380708	1148.171824	252.265560	316.663146	945.909907	180.635625	-230.063855	934.177335	368.963669
2629	26.28000	1.702267	939.436455	159.181584	-18.775158	1502.959284	254.300435	-25.614430	1574.626212	413.798058	78.557170	938.082026	157.741762	-75.152490	940.790870	160.621413	131.192946	534.634149	341.863342	-97.857371	501.041563	168.476622	138.838129	202.444658	189.465482	-96.942684	104.750108	28.241089	134.462222	174.149538	148.579894	-96.653914	57.870372	-13.317799	136.606560	96.158720	310.661518	-107.502042	35.324407	214.639666	157.415432	1467.856829	186.734791	-196.086728	1433.825982	238.794776	252.097694	1191.502367	117.742923	-251.728567	1148.276943	258.042773	319.916251	944.239135	168.721102	-226.892462	937.572689	381.534502
2630	26.29000	3.218982	939.117826	158.982142	-16.332139	1502.992687	253.417827	-22.552866	1574.818334	412.926937	80.073207	937.805185	157.537905	-73.635049	940.430448	160.426390	132.427259	535.264852	347.683611	-97.749795	499.595923	161.382479	140.298145	198.539141	205.613768	-97.746459	107.723060	13.314359	136.019678	168.838396	165.713558	-97.357175	62.094891	-28.758420	137.268727	97.082128	330.526911	-109.264757	35.710996	195.870237	159.605147	1467.516330	184.361515	-194.324919	1433.793344	239.680912	253.567165	1191.340376	112.838550	-251.076425	1148.382063	263.819986	323.169356	942.568363	156.806579	-223.721069	940.968043	394.105336
2631	26.30000	4.735697	938.799197	158.782700	-13.889120	1503.026091	252.535220	-19.491301	1575.010456	412.055816	81.589244	937.528344	157.334047	-72.117607	940.070027	160.231367	133.661571	535.895556	353.503879	-97.642218	498.150283	154.288336	141.758161	194.633624	221.762054	-98.550233	110.696012	-1.612372	137.577134	163.527253	182.847222	-98.060437	66.319410	-44.199041	137.930894	98.005537	350.392304	-111.027473	36.097585	177.100809	161.794863	1467.175831	181.988239	-192.563111	1433.760706	240.567047	255.036636	1191.178384	107.934177	-250.424283	1148.487182	269.597199	326.422460	940.897591	144.892056	-220.549676	944.363397	406.676169
2632	26.31000	6.252412	938.480568	158.583258	-11.446101	1503.059494	251.652612	-16.429737	1575.202578	411.184696	83.105281	937.251503	157.130190	-70.600166	939.709606	160.036343	134.895884	536.526259	359.324147	-97.534641	496.704644	147.194192	143.218177	190.728107	237.910341	-99.354008	113.668964	-16.539102	139.134590	158.216111	199.980885	-98.763699	70.543928	-59.639662	138.593061	98.928946	370.257696	-112.790188	36.484174	158.331381	163.984579	1466.835332	179.614962	-190.801302	1433.728068	241.453183	256.506107	1191.016393	103.029804	-249.772142	1148.592301	275.374412	329.675565	939.226819	132.977532	-217.378283	947.758751	419.247002
2633	26.32000	7.769127	938.161939	158.383817	-9.003082	1503.092897	250.770005	-13.368173	1575.394700	410.313575	84.621318	936.974661	156.926332	-69.082724	939.349184	159.841320	136.130196	537.156963	365.144415	-97.427064	495.259004	140.100049	144.678194	186.822591	254.058627	-100.157782	116.641916	-31.465833	140.692046	152.904969	217.114549	-99.466961	74.768447	-75.080283	139.255228	99.852354	390.123089	-114.552903	36.870764	139.561952	166.174294	1466.494834	177.241686	-189.039493	1433.695430	242.339319	257.975578	1190.854401	98.125432	-249.120000	1148.697420	281.151625	332.928670	937.556047	121.063009	-214.206890	951.154105	431.817836
2634	26.33000	9.285842	937.843310	158.184375	-6.560064	1503.126301	249.887397	-10.306608	1575.586822	409.442455	86.137354	936.697820	156.722474	-67.565282	938.988763	159.646297	137.364509	537.787666	370.964683	-97.319488	493.813364	133.005906	146.138210	182.917074	270.206913	-100.961557	119.614868	-46.392563	142.249502	147.593827	234.248213	-100.170223	78.992965	-90.520904	139.917395	100.775763	409.988482	-116.315618	37.257353	120.792524	168.364010	1466.154335	174.868410	-187.277684	1433.662792	243.225454	259.445048	1190.692409	93.221059	-248.467859	1148.802540	286.928838	336.181775	935.885275	109.148486	-211.035497	954.549460	444.388669
2635	26.34000	10.802557	937.524681	157.984933	-4.117045	1503.159704	249.004790	-7.245044	1575.778944	408.571334	87.653391	936.420979	156.518617	-66.047841	938.628342	159.451273	138.598822	538.418370	376.784951	-97.211911	492.367725	125.911763	147.598226	179.011557	286.355200	-101.765331	122.587820	-61.319294	143.806957	142.282685	251.381877	-100.873485	83.217484	-105.961525	140.579562	101.699171	429.853875	-118.078334	37.643942	102.023095	170.553726	1465.813836	172.495134	-185.515876	1433.630154	244.111590	260.914519	1190.530418	88.316686	-247.815717	1148.907659	292.706051	339.434879	934.214503	97.233963	-207.864104	957.944814	456.959502
2636	26.35000	12.319272	937.206052	157.785491	-1.674026	1503.193107	248.122182	-4.183479	1575.971066	407.700213	89.169428	936.144138	156.314759	-64.530399	938.267920	159.256250	139.833134	539.049073	382.605219	-97.104334	490.922085	118.817619	149.058242	175.106040	302.503486	-102.569106	125.560772	-76.246024	145.364413	136.971543	268.515540	-101.576747	87.442003	-121.402146	141.241730	102.622580	449.719268	-119.841049	38.030531	83.253667	172.743441	1465.473337	170.121858	-183.754067	1433.597516	244.997726	262.383990	1190.368426	83.412313	-247.163575	1149.012778	298.483264	342.687984	932.543731	85.319440	-204.692711	961.340168	469.530336
2637	26.36000	13.109928	936.641973	157.577490	0.328623	1502.641681	247.204513	-1.623811	1575.559687	406.665239	89.986903	935.652582	156.081244	-63.766658	937.631327	159.073756	139.635729	538.886662	382.803615	-97.832690	490.224880	116.645750	148.452686	170.235666	311.613741	-103.905608	130.578011	-85.870795	144.762100	130.670975	278.365999	-102.745695	94.036471	-131.557740	140.095129	101.769603	463.166358	-121.822491	39.626257	68.903598	174.611519	1464.249849	168.621568	-182.249550	1433.468017	244.809122	263.373377	1188.906670	80.935877	-246.458627	1148.940409	300.846255	343.532410	930.957923	80.406076	-203.089892	963.363850	477.209172
2638	26.37000	13.900584	936.077894	157.369489	2.331272	1502.090254	246.286844	0.935857	1575.148308	405.630266	90.804378	935.161027	155.847730	-63.002918	936.994734	158.891262	139.438324	538.724250	383.002011	-98.561046	489.527675	114.473881	147.847129	165.365293	320.723996	-105.242111	135.595249	-95.495566	144.159786	124.370407	288.216458	-103.914643	100.630940	-141.713334	138.948528	100.916626	476.613447	-123.803933	41.221982	54.553529	176.479598	1463.026360	167.121278	-180.745034	1433.338518	244.620517	264.362763	1187.444913	78.459440	-245.753679	1148.868041	303.209245	344.376836	929.372116	75.492712	-201.487073	965.387531	484.888008
2639	26.38000	14.691240	935.513815	157.161488	4.333921	1501.538827	245.369174	3.495526	1574.736929	404.595292	91.621852	934.669471	155.614215	-62.239177	936.358141	158.708767	139.240918	538.561839	383.200407	-99.289402	488.830471	112.302012	147.241573	160.494919	329.834251	-106.578614	140.612488	-105.120337	143.557472	118.069839	298.066917	-105.083591	107.225409	-151.868928	137.801928	100.063649	490.060537	-125.785375	42.817708	40.203460	178.347676	1461.802871	165.620988	-179.240518	1433.209019	244.431913	265.352150	1185.983157	75.983004	-245.048731	1148.795672	305.572235	345.221263	927.786308	70.579348	-199.884254	967.411213	492.566844
2640	26.39000	15.481896	934.949736	156.953487	6.336570	1500.987400	244.451505	6.055194	1574.325549	403.560318	92.439327	934.177915	155.380701	-61.475437	935.721547	158.526273	139.043513	538.399427	383.398802	-100.017758	488.133266	110.130142	146.636016	155.624546	338.944507	-107.915116	145.629727	-114.745108	142.955159	111.769271	307.917376	-106.252539	113.819878	-162.024521	136.655327	99.210672	503.507626	-127.766818	44.413434	25.853391	180.215754	1460.579383	164.120698	-177.736002	1433.079520	244.243309	266.341536	1184.521401	73.506567	-244.343783	1148.723304	307.935225	346.065689	926.200500	65.665984	-198.281435	969.434895	500.245680
2641	26.40000	16.272552	934.385657	156.745486	8.339219	1500.435973	243.533836	8.614863	1573.914170	402.525344	93.256802	933.686360	155.147186	-60.711696	935.084954	158.343779	138.846108	538.237016	383.597198	-100.746115	487.436061	107.958273	146.030460	150.754173	348.054762	-109.251619	150.646965	-124.369879	142.352845	105.468703	317.767835	-107.421487	120.414347	-172.180115	135.508727	98.357695	516.954715	-129.748260	46.009159	11.503323	182.083833	1459.355894	162.620409	-176.231485	1432.950021	244.054704	267.330922	1183.059644	71.030131	-243.638835	1148.650935	310.298215	346.910115	924.614693	60.752620	-196.678615	971.458577	507.924516
